<?xml version="1.0" encoding="utf-8"?>
<!-- Generator: Adobe Illustrator 22.1.0, SVG Export Plug-In . SVG Version: 6.00 Build 0)  -->
<svg version="1.1" id="Layer_1" xmlns="http://www.w3.org/2000/svg" xmlns:xlink="http://www.w3.org/1999/xlink" x="0px" y="0px"
	 viewBox="0 0 100 100" style="enable-background:new 0 0 100 100;" xml:space="preserve" fill="#1277bd">
<style type="text/css">
	.st0{fill:#FFFFFF;fill-opacity:0;}
	.st1{clip-path:url(#SVGID_2_);}
	.st2{clip-path:url(#SVGID_4_);}
</style>
<title>login-icon</title>
<rect class="st0" width="100" height="100"/>
<path d="M96.3,39.5"/>
<path d="M96.4,39.4"/>
<path d="M96.4,39.4"/>
<g>
	<g>
		<g>
			<defs>
				<rect id="SVGID_1_" x="0.6" y="10.1" width="72.4" height="81.2"/>
			</defs>
			<clipPath id="SVGID_2_">
				<use xlink:href="#SVGID_1_"  style="overflow:visible;"/>
			</clipPath>
			<path class="st1" d="M31.3,52.4c11.7,0,21.1-9.5,21.1-21.1c0-11.7-9.5-21.1-21.1-21.1c-11.7,0-21.1,9.5-21.1,21.1
				C10.2,42.9,19.6,52.4,31.3,52.4L31.3,52.4z M31.3,52.4"/>
			<path class="st1" d="M58,58.2c-1.1-2.4-2.5-4.8-4.3-7.1c-1-1.2-2.7-2.6-4.4-3.5c-4.4,5-10.8,8.1-17.9,8.1
				c-7.1,0-13.5-3.1-17.9-8.1c-1.7,0.9-3.4,2.3-4.3,3.5c-3,4-7.7,11.6-8.5,21.9c-0.2,2.2,0.9,5.5,2.7,6.8c3.5,2.4,10.9,5.5,26.4,5.5
				c5.4,0,9.9-0.3,13.7-0.8c-1.5-2.6-2.4-5.6-2.4-8.9C41,66.2,48.6,58.4,58,58.2L58,58.2z M58,58.2"/>
		</g>
	</g>
	<g>
		<g>
			<defs>
				
					<rect id="SVGID_3_" x="46.8" y="51.8" transform="matrix(0.7071 -0.7071 0.7071 0.7071 -32.9416 71.6463)" width="46.5" height="47.5"/>
			</defs>
			<clipPath id="SVGID_4_">
				<use xlink:href="#SVGID_3_"  style="overflow:visible;"/>
			</clipPath>
			<path class="st2" d="M47.4,85.8c1.4,1.4,3.1,2.5,5,3.3c1.8,0.7,3.7,1.1,5.6,1.1c1.9,0,3.8-0.4,5.6-1.1c1.9-0.8,3.5-1.9,5-3.3
				c1.8-1.8,3.1-4,3.8-6.4l13.4,0v5c0,0.6,0.4,1.1,1,1.4c0.1,0,0.3,0.1,0.4,0.1l5.6,0c0.6,0,1.1-0.4,1.4-1c0-0.1,0.1-0.3,0.1-0.4
				l0-5.1l3.5,0c0.6,0,1.1-0.4,1.4-1c0-0.1,0.1-0.3,0.1-0.4l0-5.7c0-0.1,0-0.3-0.1-0.4c-0.2-0.6-0.8-1-1.4-1l-25.4,0
				c-0.7-2.4-2-4.6-3.8-6.4c-1.4-1.4-3.1-2.5-5-3.3c-1.8-0.7-3.7-1.1-5.6-1.1c-1.9,0-3.8,0.4-5.6,1.1c-1.9,0.8-3.5,1.9-5,3.3
				c-1.4,1.4-2.5,3.1-3.3,5c-0.7,1.8-1.1,3.7-1.1,5.6c0,1.9,0.4,3.8,1.1,5.6C44.9,82.7,46,84.4,47.4,85.8L47.4,85.8z M58,82.6
				c-2,0-3.9-0.8-5.3-2.2c-1.4-1.4-2.2-3.3-2.2-5.3c0-2,0.8-3.9,2.2-5.3c1.4-1.4,3.3-2.2,5.3-2.2c2,0,3.8,0.8,5.3,2.2
				c1.4,1.4,2.2,3.3,2.2,5.3c0,2-0.8,3.9-2.2,5.3C61.8,81.9,60,82.6,58,82.6L58,82.6z M58,82.6"/>
		</g>
	</g>
</g>
</svg>
